<?xml version="1.0" encoding="UTF-8"?>
<svg id="Layer_1" data-name="Layer 1" xmlns="http://www.w3.org/2000/svg" viewBox="0 0 510.05 184.13">
  <defs>
    <style>
      .cls-1 {
        fill: #fff;
      }
    </style>
  </defs>
  <g>
    <g>
      <path class="cls-1" d="M293.66,23.59v16.65h-26.47v-14.47c0-2.02-.48-3.37-1.44-4.07-.95-.7-2.71-1.04-5.27-1.04h-11.25c-2.56,0-4.32,.35-5.27,1.04-.96,.7-1.44,2.05-1.44,4.07v46.06h-2.28c-4.43,0-8.27-.46-11.51-1.38-4.77-1.34-8.25-3.69-10.42-7.03-1.83-2.8-2.74-6.29-2.74-10.5V23.59c0-12.49,8.62-18.73,25.87-18.73h26.35c17.25,0,25.87,6.24,25.87,18.73Z"/>
      <path class="cls-1" d="M293.66,74.3v31.21c0,12.49-8.71,18.73-26.11,18.73h-25.87c-17.41,0-26.11-6.24-26.11-18.73v-16.46h26.47v14.29c0,2.01,.48,3.37,1.44,4.07,.95,.69,2.71,1.03,5.27,1.03h11.25c2.56,0,4.32-.35,5.27-1.03,.96-.7,1.44-2.05,1.44-4.07v-26.49c0-2.32-1.33-3.29-2.27-3.97-.96-.69-2.72-1.04-5.27-1.04h-4.44v-10.31h34c1.6,0,2.68,.77,3.4,1.99,1.16,1.94,1.44,5.01,1.51,7.99,.02,.95,.02,1.9,.02,2.79Z"/>
    </g>
    <path class="cls-1" d="M159.85,108.35l-.71-3.39-.96-4.69c-3.98-19.32-4.86-38.94-2.6-58.38,.54-4.4,1.22-8.8,2.05-13.16l.88-4.57,.13-.71,.5-2.68,.08-.38c.63-3.31,3.56-5.74,6.96-5.74h10.28c-1.3,2.18-2.47,5.16-3.52,8.8-1.47,5.03-2.68,11.32-3.48,18.44-.8,6.92-1.26,14.59-1.26,22.67,0,22.51,3.44,41.79,8.26,49.92h-9.61c-3.31,0-6.24-2.39-6.92-5.66l-.08-.46Zm-20.08-7.96l-1.01-3.94-.63-2.47-.13-.5c-4.32-17.1-4.99-34.41-1.8-51.59,.38-2.14,.8-4.23,1.3-6.37l.08-.38h0l.59-2.47,.92-3.86c.63-2.68,3.52-4.65,6.92-4.65h8.21s-.71,3.77-.71,3.77c-.88,4.65-1.59,9.3-2.14,13.96-2.26,19.74-1.34,39.65,2.68,59.26l.8,3.81h-8.13c-3.35,0-6.29-1.89-6.96-4.57Zm-18.36-56.96l1.59-4.9c.63-1.97,3.56-3.39,6.96-3.39h3.35c-.5,2.26-.96,4.48-1.38,6.75-3.1,17.35-2.43,34.87,1.93,52.1h-3.23c-3.31,0-6.24-1.38-6.92-3.31l-1.76-5.03c-4.9-14-5.07-28.21-.54-42.21Zm94.89,14.98l-.03-8.15-21.58-.23c-.63-9.18-1.83-17.39-3.48-23.91-.25-.93-.46-1.85-.71-2.69-2.26-7.65-5.13-12.4-8.27-12.89v-.1h-16.06c-5.4,0-10.05,3.86-11.06,9.18l-.21,1.13h-8.89c-3.05,0-5.9,1.01-7.96,2.68-1.55,1.26-2.68,2.85-3.1,4.74l-1.05,4.48h-3.94c-5.4,0-10.06,2.27-11.06,5.41l-1.6,4.91c-4.65,14.33-4.44,28.83,.55,43.12l1.76,5.07c1.09,3.06,5.7,5.29,11.02,5.29h3.86l1.17,4.65c1.09,4.19,5.74,7.25,11.07,7.25h8.8l.29,1.34c1.09,5.2,5.7,8.97,11.03,8.97h15.38v-.11c5.96-.93,10.92-17.31,12.46-39.47,.32-4.62,.5-9.46,.5-14.53,0-2.09-.03-4.13-.09-6.14h21.2Z"/>
    <path class="cls-1" d="M395.46,55.4c-.53-4.15-1.47-8.3-2.81-12.43l-1.59-4.91c-1.01-3.14-5.66-5.41-11.07-5.41h-3.94l-1.04-4.48c-.42-1.89-1.55-3.48-3.11-4.74-2.05-1.67-4.9-2.68-7.96-2.68h-8.88l-.21-1.13c-1.01-5.32-5.66-9.18-11.07-9.18h-16.05v.1c-3.14,.49-6.01,5.24-8.27,12.89-.25,.84-.46,1.76-.72,2.69-1.64,6.52-2.84,14.73-3.48,23.91-.32,4.61-.5,9.46-.5,14.52,0,2.09,.04,4.14,.1,6.14l-21.2,.03v8.36h21.61c1.54,22.16,6.49,38.54,12.46,39.47v.11h15.38c5.32,0,9.93-3.77,11.02-8.97l.3-1.34h8.8c5.32,0,9.97-3.06,11.06-7.25l1.18-4.65h3.85c5.33,0,9.94-2.23,11.03-5.29l1.76-5.07c.85-2.43,1.56-4.87,2.13-7.31,1.81-7.77,2.23-15.59,1.22-23.38Zm-43.67,44.86l-.97,4.69-.71,3.4-.08,.46c-.67,3.27-3.61,5.66-6.92,5.66h-9.61c4.82-8.13,8.25-27.41,8.25-49.92,0-8.09-.46-15.76-1.25-22.67-.8-7.13-2.01-13.42-3.48-18.45-1.05-3.64-2.22-6.62-3.52-8.8h10.28c3.4,0,6.33,2.43,6.96,5.74l.08,.38,.51,2.68,.12,.72,.88,4.57c.84,4.35,1.51,8.75,2.06,13.16,2.26,19.44,1.38,39.06-2.6,58.38Zm20.16-6.79l-.13,.5-.63,2.48-1,3.93c-.67,2.69-3.61,4.57-6.96,4.57h-8.13l.79-3.81c4.03-19.62,4.95-39.52,2.69-59.26-.55-4.66-1.26-9.31-2.14-13.96l-.71-3.77h8.21c3.4,0,6.29,1.97,6.92,4.65l.92,3.85,.59,2.48,.08,.37c.5,2.14,.92,4.24,1.3,6.38,3.18,17.18,2.51,34.49-1.8,51.59Zm16.05-7.84l-1.76,5.03c-.67,1.93-3.61,3.31-6.92,3.31h-3.22c.44-1.76,.85-3.51,1.21-5.28,.12-.57,.24-1.14,.35-1.71,2.9-14.96,3.05-30.09,.36-45.1-.42-2.27-.88-4.49-1.38-6.75h3.35c3.4,0,6.33,1.42,6.96,3.39l1.59,4.91c1.87,5.77,2.93,11.57,3.2,17.38,.31,6.57-.41,13.14-2.16,19.68-.45,1.72-.98,3.43-1.58,5.14Z"/>
    <path class="cls-1" d="M376.1,66.19c.52-1.09,1.04-2.18,1.56-3.27-.11,.57-.23,1.14-.35,1.71-.43,.5-.83,1.02-1.21,1.56Z"/>
    <path class="cls-1" d="M418.05,52.52c9.53-8.35,23.09-9.88,35.73-10.73,12.64-.85,26.09-1.67,36.35-9.1-2.96,10.32-13.04,17.19-23.39,20.09-10.34,2.9-21.26,2.68-31.94,3.84-10.68,1.17-21.81,4.06-29.32,11.73,14.5-8.66,23.47-7.2,40.29-7.97,8.71-.39,21.55,1.07,28.52-4.38-7.06,9.65-19.03,14.53-30.81,16.59-11.79,2.05-23.93,1.35-35.7,3.49-4.62,.84-9.24,1.91-13.54,3.31-1.61,.52-3.17,1.08-4.66,1.71,1.75-6.54,2.47-13.11,2.16-19.68,1.19-1.84,2.43-3.65,3.72-5.41,4.89-6.69,10.53-12.75,17.36-17.71,5.34-3.88,11.19-7.07,17.37-9.4,13.51-5.1,28.14-6.2,42.27-9.19C486.59,16.73,501.07,11.31,510.05,0c-3.6,13.04-13.16,24.3-25.44,29.98-10.84,5.01-23.08,5.69-34.87,7.63-11.78,1.93-24.11,5.68-31.69,14.91Z"/>
    <path class="cls-1" d="M92,52.52c-9.53-8.35-23.09-9.88-35.73-10.73-12.64-.85-26.09-1.67-36.35-9.1,2.96,10.32,13.04,17.19,23.39,20.09,10.34,2.9,21.26,2.68,31.94,3.84,10.68,1.17,21.81,4.06,29.32,11.73-14.5-8.66-23.47-7.2-40.29-7.97-8.71-.39-21.55,1.07-28.52-4.38,7.06,9.65,19.03,14.53,30.81,16.59,11.79,2.05,23.93,1.35,35.7,3.49,4.62,.84,9.24,1.91,13.54,3.31,1.61,.52,3.17,1.08,4.66,1.71-1.75-6.54-2.47-13.11-2.16-19.68-1.19-1.84-2.43-3.65-3.72-5.41-4.89-6.69-10.53-12.75-17.36-17.71-5.34-3.88-11.19-7.07-17.37-9.4-13.51-5.1-28.14-6.2-42.27-9.19C23.46,16.73,8.98,11.31,0,0,3.6,13.04,13.16,24.3,25.44,29.98c10.84,5.01,23.08,5.69,34.87,7.63,11.78,1.93,24.11,5.68,31.69,14.91Z"/>
  </g>
  <g>
    <path class="cls-1" d="M140.09,151.62c-.97-4.18-2.56-8.3-7.91-8.3-4.44,0-5.97,3.61-5.97,6.91,0,4.37,2.5,6.59,7.22,9.32,6.83,3.93,9.78,6.85,9.78,12.87,0,6.66-5.18,11.73-12.51,11.73-3.41,0-6.37-1.08-8.7-2.09-.45-1.78-1.14-6.08-1.54-9.51l1.76-.51c1.14,4.25,3.64,9.76,9.56,9.76,4.09,0,6.6-3.17,6.6-7.29,0-4.88-2.33-6.85-7.34-9.89-5.97-3.61-9.33-6.66-9.33-12.55s4.21-10.97,11.72-10.97c3.19,0,6.31,.95,7.51,1.2,.23,2.28,.45,4.82,.91,8.94l-1.76,.38Z"/>
    <path class="cls-1" d="M148.11,141.98h15.19v1.77c-4.44,.44-5.23,.89-5.23,6.53v10.9c1.14-.13,2.45-1.14,4.09-2.92,3.19-3.36,7-7.67,9.61-10.97,1.71-2.16,1.54-2.98-.91-3.36l-1.59-.19v-1.77h13.82v1.77c-4.27,.57-5.74,.89-9.55,5.26-1.71,1.84-6.14,6.66-9.78,10.65,4.32,5.7,10.64,13.82,13.59,17.3,2.9,3.49,3.64,3.99,7.17,4.44v1.77h-9.1c-4.38-5.51-8.99-11.66-14.16-18.38-1.31-1.77-2.27-1.9-3.18-1.84v12.04c0,5.51,.51,5.96,5.23,6.4v1.77h-15.19v-1.77c4.66-.44,5.12-.89,5.12-6.4v-24.72c0-5.71-.4-6.15-5.12-6.53v-1.77Z"/>
    <path class="cls-1" d="M216.87,143.76c-3.98,.51-4.66,1.21-6.94,5.26-2.56,4.63-4.66,9-7.45,14.64-.68,1.46-.85,2.22-.85,3.74v7.8c0,5.26,.51,5.64,5.8,6.21v1.77h-16.32v-1.77c5.18-.76,5.57-.89,5.57-6.21v-8.18c0-1.27-.23-1.84-1.14-3.68-1.99-4.12-3.92-8.11-7-14.07-2.22-4.31-2.79-5.07-6.65-5.51v-1.77h13.99v1.77c-4.1,.63-3.87,1.46-2.84,3.61,2.39,4.88,5.06,10.58,7.45,15.34,2.05-4.25,5.29-11.16,6.88-14.64,1.31-3.17,1.14-3.8-3.36-4.31v-1.77h12.85v1.77Z"/>
    <path class="cls-1" d="M249.34,173.1c-.34,1.65-1.88,8.18-2.45,10.08h-27.64v-1.77c5.29-.44,5.69-1.01,5.69-6.21v-25.04c0-5.64-.63-5.96-4.89-6.4v-1.77h17.4c5.35,0,7.56-.06,8.25-.13,.06,1.58,.28,6.34,.51,9.7l-1.71,.32c-.51-2.15-1.08-3.49-1.71-4.82-.91-2.09-2.22-2.54-5.63-2.54h-5.4c-1.76,0-1.88,.19-1.88,2.03v14.01h6.31c4.27,0,4.55-.95,5.23-5.26h1.76v13.06h-1.76c-.74-4.56-1.19-5.2-5.29-5.2h-6.26v12.61c0,4.44,1.25,4.82,4.1,4.88h5.29c3.47,0,4.04-.57,5.29-2.22,1.08-1.33,2.28-3.93,3.07-5.83l1.71,.51Z"/>
    <path class="cls-1" d="M303.71,165.88c-3.53,.51-3.75,.89-3.75,4.63v5.32c0,2.22,.06,4.31,.34,6.02-3.53,.89-8.13,2.28-12.91,2.28-12.91,0-20.76-8.94-20.76-21.68,0-13.38,9.78-21.36,21.16-21.36,5.8,0,10.07,1.27,11.83,1.58,.11,2.34,.4,6.21,.85,10.21l-1.71,.38c-1.36-5.39-3.01-7.67-6.6-9-1.31-.51-3.64-.82-5.29-.82-8.7,0-14.33,6.66-14.33,18.25,0,10.08,4.66,20.09,15.7,20.09,1.93,0,3.7-.44,4.83-1.08,1.19-.76,1.93-1.46,1.93-4.06v-5.2c0-4.63-.46-5.13-5.92-5.58v-1.84h14.62v1.84Z"/>
    <path class="cls-1" d="M340.62,143.76c-3.98,.51-4.66,1.21-6.94,5.26-2.56,4.63-4.66,9-7.45,14.64-.68,1.46-.85,2.22-.85,3.74v7.8c0,5.26,.51,5.64,5.8,6.21v1.77h-16.32v-1.77c5.18-.76,5.57-.89,5.57-6.21v-8.18c0-1.27-.23-1.84-1.14-3.68-1.99-4.12-3.92-8.11-7-14.07-2.22-4.31-2.79-5.07-6.65-5.51v-1.77h13.99v1.77c-4.09,.63-3.87,1.46-2.84,3.61,2.39,4.88,5.06,10.58,7.45,15.34,2.05-4.25,5.29-11.16,6.88-14.64,1.31-3.17,1.14-3.8-3.36-4.31v-1.77h12.85v1.77Z"/>
    <path class="cls-1" d="M374.46,183.18v-1.77c4.66-.51,4.83-.89,4.78-7.67l.06-25.86c-4.66,11.6-12.17,29.73-14.16,35.31h-1.48c-1.93-5.77-8.36-23.2-12.68-34.67-.97,22.18-1.02,27.19-1.02,28.4,.06,3.55,1.48,4.06,5.35,4.5v1.77h-13.48v-1.77c3.3-.38,4.66-1.14,5.12-4.56,.34-2.79,.4-5.07,1.88-28.21,.23-3.3-.34-4.37-5.35-4.88v-1.77h9.9l12.57,32.14,13.48-32.14h9.95v1.77c-4.89,.63-5.52,1.21-5.4,5.64l.23,24.34c.23,6.78,.4,7.1,5.4,7.67v1.77h-15.13Z"/>
  </g>
</svg>